<?xml version="1.0" encoding="UTF-8" standalone="no"?>
<svg
   aria-hidden="true"
   focusable="false"
   data-prefix="fas"
   data-icon="balance-scale"
   class="svg-inline--fa fa-balance-scale fa-w-20"
   role="img"
   viewBox="0 0 640 687.63128"
   version="1.1"
   id="svg4"
   sodipodi:docname="balance-scale-solid.svg"
   width="640"
   height="687.63129"
   inkscape:version="1.1 (c68e22c387, 2021-05-23)"
   xmlns:inkscape="http://www.inkscape.org/namespaces/inkscape"
   xmlns:sodipodi="http://sodipodi.sourceforge.net/DTD/sodipodi-0.dtd"
   xmlns="http://www.w3.org/2000/svg"
   xmlns:svg="http://www.w3.org/2000/svg">
  <defs
     id="defs8" />
  <sodipodi:namedview
     id="namedview6"
     pagecolor="#ffffff"
     bordercolor="#666666"
     borderopacity="1.0"
     inkscape:pageshadow="2"
     inkscape:pageopacity="0.0"
     inkscape:pagecheckerboard="0"
     showgrid="false"
     fit-margin-top="0"
     fit-margin-left="0"
     fit-margin-right="0"
     fit-margin-bottom="0"
     inkscape:zoom="0.38669902"
     inkscape:cx="338.76476"
     inkscape:cy="257.30606"
     inkscape:window-width="1366"
     inkscape:window-height="745"
     inkscape:window-x="1358"
     inkscape:window-y="-8"
     inkscape:window-maximized="1"
     inkscape:current-layer="svg4" />
  <path
     fill="currentColor"
     d="m 256,336 h -0.02 c 0,-16.18 1.34,-8.73 -85.05,-181.51 -17.65,-35.29 -68.19,-35.36 -85.87,0 C -2.06,328.75 0.02,320.33 0.02,336 H 0 c 0,44.18 57.31,80 128,80 70.69,0 128,-35.82 128,-80 z M 128,176 200,320 H 56 Z m 511.98,160 c 0,-16.18 1.34,-8.73 -85.05,-181.51 -17.65,-35.29 -68.19,-35.36 -85.87,0 C 381.94,328.75 384.02,320.33 384.02,336 H 384 c 0,44.18 57.31,80 128,80 70.69,0 128,-35.82 128,-80 z M 440,320 512,176 584,320 Z m 88,128 H 352 V 153.25 C 375.51,142.96 393.16,121.77 398.39,96 H 528 c 8.84,0 16,-7.16 16,-16 V 48 c 0,-8.84 -7.16,-16 -16,-16 H 383.64 C 369.04,12.68 346.09,0 320,0 293.91,0 270.96,12.68 256.36,32 H 112 c -8.84,0 -16,7.16 -16,16 v 32 c 0,8.84 7.16,16 16,16 h 129.61 c 5.23,25.76 22.87,46.96 46.39,57.25 V 448 H 112 c -8.84,0 -16,7.16 -16,16 v 32 c 0,8.84 7.16,16 16,16 h 416 c 8.84,0 16,-7.16 16,-16 v -32 c 0,-8.84 -7.16,-16 -16,-16 z"
     id="path2" />
  <text
     xml:space="preserve"
     style="font-style:normal;font-variant:normal;font-weight:bold;font-stretch:normal;font-size:200px;line-height:1.25;font-family:Arial;-inkscape-font-specification:'Arial, Bold';font-variant-ligatures:normal;font-variant-caps:normal;font-variant-numeric:normal;font-variant-east-asian:normal"
     x="82.751694"
     y="685.28754"
     id="text1816"><tspan
       sodipodi:role="line"
       id="tspan1814"
       x="82.751694"
       y="685.28754">Peso</tspan></text>
</svg>
