<?xml version="1.0" encoding="UTF-8" standalone="no"?>
<svg
   aria-hidden="true"
   focusable="false"
   data-prefix="far"
   data-icon="cube"
   role="img"
   viewBox="0 0 816.30859 667.61609"
   class="svg-inline--fa fa-cube fa-w-16 fa-5x"
   version="1.1"
   id="svg22362"
   sodipodi:docname="cube.svg"
   width="816.30859"
   height="667.61609"
   inkscape:version="1.1 (c68e22c387, 2021-05-23)"
   xmlns:inkscape="http://www.inkscape.org/namespaces/inkscape"
   xmlns:sodipodi="http://sodipodi.sourceforge.net/DTD/sodipodi-0.dtd"
   xmlns="http://www.w3.org/2000/svg"
   xmlns:svg="http://www.w3.org/2000/svg">
  <defs
     id="defs22366" />
  <sodipodi:namedview
     id="namedview22364"
     pagecolor="#ffffff"
     bordercolor="#666666"
     borderopacity="1.0"
     inkscape:pageshadow="2"
     inkscape:pageopacity="0.0"
     inkscape:pagecheckerboard="0"
     showgrid="false"
     fit-margin-top="0"
     fit-margin-left="0"
     fit-margin-right="0"
     fit-margin-bottom="0"
     inkscape:zoom="0.4046529"
     inkscape:cx="334.85488"
     inkscape:cy="391.69372"
     inkscape:window-width="1366"
     inkscape:window-height="745"
     inkscape:window-x="1358"
     inkscape:window-y="-8"
     inkscape:window-maximized="1"
     inkscape:current-layer="svg22362" />
  <path
     fill="currentColor"
     d="m 380.05912,3.062613 -208,78 c -18.7,7 -31.1,24.999997 -31.1,44.999997 v 225.1 c 0,18.2 10.3,34.8 26.5,42.9 l 208,104 c 13.5,6.8 29.4,6.8 42.9,0 l 208,-104 c 16.3,-8.1 26.5,-24.8 26.5,-42.9 v -225.1 c 0,-20 -12.4,-37.899997 -31.1,-44.899997 l -208,-78 c -10.8,-4.2 -22.8,-4.2 -33.7,-0.1 z m 16.9,45 208,77.999997 v 0.3 l -208,84.5 -208,-84.5 v -0.3 z m -208,130.099997 184,74.8 v 190.2 l -184,-92 z m 232,264.9 v -190.1 l 184,-74.8 v 172.9 z"
     class=""
     id="path22360" />
  <text
     xml:space="preserve"
     style="font-style:normal;font-variant:normal;font-weight:bold;font-stretch:normal;font-size:200px;line-height:1.25;font-family:Arial;-inkscape-font-specification:'Arial, Bold';font-variant-ligatures:normal;font-variant-caps:normal;font-variant-numeric:normal;font-variant-east-asian:normal"
     x="0.09765625"
     y="665.27234"
     id="text24438"><tspan
       sodipodi:role="line"
       id="tspan24436"
       x="0.09765625"
       y="665.27234">Volumen</tspan></text>
</svg>
