<?xml version="1.0" encoding="UTF-8" standalone="no"?>
<!-- Generator: Adobe Illustrator 18.0.0, SVG Export Plug-In . SVG Version: 6.00 Build 0)  -->

<svg
   version="1.1"
   id="Capa_1"
   x="0px"
   y="0px"
   viewBox="0 0 506.67995 667.19672"
   xml:space="preserve"
   sodipodi:docname="icono2.svg"
   inkscape:version="1.1 (c68e22c387, 2021-05-23)"
   width="380.00995pt"
   height="500.39749pt"
   xmlns:inkscape="http://www.inkscape.org/namespaces/inkscape"
   xmlns:sodipodi="http://sodipodi.sourceforge.net/DTD/sodipodi-0.dtd"
   xmlns="http://www.w3.org/2000/svg"
   xmlns:svg="http://www.w3.org/2000/svg"><defs
   id="defs43"><rect
     x="131.66277"
     y="509.09601"
     width="176.4281"
     height="58.809368"
     id="rect5481" /></defs><sodipodi:namedview
   id="namedview41"
   pagecolor="#ffffff"
   bordercolor="#666666"
   borderopacity="1.0"
   inkscape:pageshadow="2"
   inkscape:pageopacity="0.0"
   inkscape:pagecheckerboard="0"
   showgrid="false"
   inkscape:snap-center="false"
   inkscape:zoom="0.28481858"
   inkscape:cx="-307.2131"
   inkscape:cy="338.81217"
   inkscape:window-width="1366"
   inkscape:window-height="745"
   inkscape:window-x="1358"
   inkscape:window-y="-8"
   inkscape:window-maximized="1"
   inkscape:current-layer="Capa_1"
   inkscape:lockguides="true"
   height="488.65573pt"
   units="pt"
   fit-margin-top="0"
   fit-margin-left="0"
   fit-margin-right="0"
   fit-margin-bottom="0"
   inkscape:document-units="pt" />
<g
   id="g8"
   transform="translate(8.1171667,-0.6759207)">
	<path
   d="M 350.373,116.048 H 24.445 C 10.942,116.048 0,126.988 0,140.492 V 466.42 c 0,13.503 10.942,24.445 24.445,24.445 h 325.928 c 13.503,0 24.444,-10.942 24.444,-24.445 V 140.492 c 0,-13.504 -10.941,-24.444 -24.444,-24.444 z M 325.928,441.975 H 48.889 V 164.936 h 277.039 z"
   id="path2" />
	<path
   d="M 486.695,411.913 H 460.182 V 126.63 h 26.513 c 1.958,0 3.724,-1.178 4.472,-2.991 0.756,-1.814 0.342,-3.892 -1.05,-5.283 L 447.315,75.554 c -1.894,-1.894 -4.965,-1.894 -6.858,0 l -42.803,42.802 c -1.392,1.392 -1.806,3.469 -1.05,5.283 0.749,1.813 2.515,2.991 4.473,2.991 h 26.513 v 285.283 h -26.513 c -1.958,0 -3.724,1.177 -4.473,2.991 -0.755,1.815 -0.342,3.893 1.05,5.285 l 42.803,42.802 c 1.893,1.894 4.965,1.894 6.858,0 l 42.802,-42.802 c 1.393,-1.392 1.807,-3.469 1.05,-5.285 -0.748,-1.814 -2.513,-2.991 -4.472,-2.991 z"
   id="path4" />
	<path
   d="m 70.676,94.563 c 1.392,1.392 3.469,1.806 5.284,1.05 1.814,-0.747 2.992,-2.514 2.992,-4.472 V 64.628 h 285.283 v 26.513 c 0,1.958 1.177,3.725 2.991,4.472 1.814,0.756 3.891,0.342 5.284,-1.05 l 42.802,-42.802 c 1.894,-1.895 1.894,-4.967 0,-6.86 L 372.51,2.1 c -1.393,-1.393 -3.469,-1.807 -5.284,-1.051 -1.814,0.748 -2.991,2.514 -2.991,4.472 V 32.036 H 78.952 V 5.521 C 78.952,3.564 77.775,1.797 75.96,1.049 74.146,0.293 72.068,0.707 70.676,2.1 L 27.875,44.901 c -1.894,1.893 -1.894,4.965 0,6.86 z"
   id="path6" />
</g>
<g
   id="g10"
   transform="translate(15.139181,-0.6759207)">
</g>
<g
   id="g12"
   transform="translate(15.139181,-0.6759207)">
</g>
<g
   id="g14"
   transform="translate(15.139181,-0.6759207)">
</g>
<g
   id="g16"
   transform="translate(15.139181,-0.6759207)">
</g>
<g
   id="g18"
   transform="translate(15.139181,-0.6759207)">
</g>
<g
   id="g20"
   transform="translate(15.139181,-0.6759207)">
</g>
<g
   id="g22"
   transform="translate(15.139181,-0.6759207)">
</g>
<g
   id="g24"
   transform="translate(15.139181,-0.6759207)">
</g>
<g
   id="g26"
   transform="translate(15.139181,-0.6759207)">
</g>
<g
   id="g28"
   transform="translate(15.139181,-0.6759207)">
</g>
<g
   id="g30"
   transform="translate(15.139181,-0.6759207)">
</g>
<g
   id="g32"
   transform="translate(15.139181,-0.6759207)">
</g>
<g
   id="g34"
   transform="translate(15.139181,-0.6759207)">
</g>
<g
   id="g36"
   transform="translate(15.139181,-0.6759207)">
</g>
<g
   id="g38"
   transform="translate(15.139181,-0.6759207)">
</g>
<text
   xml:space="preserve"
   id="text5479"
   style="font-style:normal;font-variant:normal;font-weight:bold;font-stretch:normal;font-size:39.6134px;line-height:1.25;font-family:sans-serif;-inkscape-font-specification:'sans-serif, Bold';font-variant-ligatures:normal;font-variant-caps:normal;font-variant-numeric:normal;font-variant-east-asian:normal;white-space:pre;shape-inside:url(#rect5481);fill:#000000;fill-opacity:1;stroke:none;paint-order:stroke markers fill"
   transform="matrix(3.621142,0,0,3.8447303,-452.97388,-1480.5802)" /><text
   xml:space="preserve"
   style="font-style:normal;font-variant:normal;font-weight:bold;font-stretch:normal;font-size:200px;line-height:1.25;font-family:Arial;-inkscape-font-specification:'Arial, Bold';font-variant-ligatures:normal;font-variant-caps:normal;font-variant-numeric:normal;font-variant-east-asian:normal"
   x="7.022028"
   y="664.85291"
   id="text17567"><tspan
     sodipodi:role="line"
     id="tspan17565"
     x="7.022028"
     y="664.85291">Area</tspan></text></svg>
