<?xml version="1.0" encoding="UTF-8" standalone="no"?>
<svg
   aria-hidden="true"
   focusable="false"
   data-prefix="far"
   data-icon="ruler"
   role="img"
   viewBox="0 0 827.14844 729.13501"
   class="svg-inline--fa fa-ruler fa-w-20 fa-3x"
   version="1.1"
   id="svg28942"
   sodipodi:docname="regla.svg"
   width="827.14844"
   height="729.13501"
   inkscape:version="1.1 (c68e22c387, 2021-05-23)"
   xmlns:inkscape="http://www.inkscape.org/namespaces/inkscape"
   xmlns:sodipodi="http://sodipodi.sourceforge.net/DTD/sodipodi-0.dtd"
   xmlns="http://www.w3.org/2000/svg"
   xmlns:svg="http://www.w3.org/2000/svg">
  <defs
     id="defs28946" />
  <sodipodi:namedview
     id="namedview28944"
     pagecolor="#FFFFFF"
     bordercolor="#666666"
     currentColor="#FFFFFF"
     borderopacity="1.0"
     inkscape:pageshadow="2"
     inkscape:pageopacity="0.0"
     inkscape:pagecheckerboard="0"
     showgrid="false"
     fit-margin-top="0"
     fit-margin-left="0"
     fit-margin-right="0"
     fit-margin-bottom="0"
     inkscape:zoom="0.4046529"
     inkscape:cx="231.06223"
     inkscape:cy="465.83133"
     inkscape:window-width="1366"
     inkscape:window-height="745"
     inkscape:window-x="1358"
     inkscape:window-y="-8"
     inkscape:window-maximized="1"
     inkscape:current-layer="svg28942" />
  <path
     
     d="m 763.70071,179.23659 -92.5,-162.899998 c -7.6,-13.5000003 -26.5,-22.0000003 -43.7,-11.9000003 l -483.5,283.8999983 c -15.3,9 -20.6,28.9 -11.7,44.5 l 92.5,162.9 c 7.6,13.4 26.5,22 43.7,11.9 l 483.5,-283.9 c 15.3,-9 20.5,-28.9 11.7,-44.5 z m -505.4,278 -76.4,-134.7 46,-27 34.2,60.3 c 2.2,3.9 7.1,5.2 10.9,3 l 26.6,-15.6 c 3.8,-2.2 5.1,-7.2 2.9,-11.1 l -34.2,-60.3 40.4,-23.7 18.7,32.9 c 2.2,3.9 7.1,5.2 10.9,3 l 26.6,-15.6 c 3.8,-2.2 5.1,-7.2 2.9,-11.1 l -18.7,-32.9 40.4,-23.7 34.2,60.3 c 2.2,3.9 7.1,5.2 10.9,3 l 26.6,-15.6 c 3.8,-2.2 5.1,-7.2 2.9,-11.1 l -34.1,-60.5 40.4,-23.7 18.7,32.9 c 2.2,3.9 7.1,5.2 10.9,3 l 26.6,-15.6 c 3.8,-2.2 5.1,-7.2 2.9,-11.1 l -18.7,-32.9 40.4,-23.7 34.2,60.3 c 2.2,3.9 7.1,5.2 10.9,3 l 26.6,-15.6 c 3.8,-2.2 5.1,-7.2 2.9,-11.1 l -34.2,-60.299998 46,-27 76.5,134.699998 z"
     class=""
     id="path28940" />
  <text
     xml:space="preserve"
     style="font-style:normal;font-variant:normal;font-weight:bold;font-stretch:normal;font-size:200px;line-height:1.25;font-family:Arial;-inkscape-font-specification:'Arial, Bold';font-variant-ligatures:normal;font-variant-caps:normal;font-variant-numeric:normal; font-variant-east-asian:normal"
     x="-15.332031"
     y="687.04517"
     
     id="text30688"><tspan
       sodipodi:role="line"
       id="tspan30686"
       x="-15.332031"
       y="687.04517">Longitud</tspan></text>

       
</svg>
